<?xml version="1.0" encoding="UTF-8" standalone="no"?>
<!-- Created with Inkscape (http://www.inkscape.org/) -->

<svg
   width="16"
   height="16"
   viewBox="0 0 4.2333334 4.2333334"
   version="1.1"
   id="svg5"
   xmlns="http://www.w3.org/2000/svg"
   xmlns:svg="http://www.w3.org/2000/svg">
  <defs
     id="defs2">
    <marker
       style="overflow:visible"
       id="TriangleOutL"
       refX="0.0"
       refY="0.0"
       orient="auto">
      <path
         transform="scale(0.8)"
         style="fill-rule:evenodd;fill:context-stroke;stroke:context-stroke;stroke-width:1.0pt"
         d="M 5.77,0.0 L -2.88,5.0 L -2.88,-5.0 L 5.77,0.0 z "
         id="path1254" />
    </marker>
    <marker
       id="ExperimentalArrow"
       refX="5.0"
       refY="3.0"
       orient="auto-start-reverse">
      <path
         style="fill:context-stroke"
         d="m 10,3 -10,3 0,-6 z"
         id="path3694" />
    </marker>
    <marker
       style="overflow:visible;"
       id="Arrow2Lend"
       refX="0.0"
       refY="0.0"
       orient="auto">
      <path
         transform="scale(1.1) rotate(180) translate(1,0)"
         d="M 8.7185878,4.0337352 L -2.2072895,0.016013256 L 8.7185884,-4.0017078 C 6.9730900,-1.6296469 6.9831476,1.6157441 8.7185878,4.0337352 z "
         style="stroke:context-stroke;fill-rule:evenodd;fill:context-stroke;stroke-width:0.62500000;stroke-linejoin:round;"
         id="path3462" />
    </marker>
    <marker
       style="overflow:visible;"
       id="Arrow1Lend"
       refX="0.0"
       refY="0.0"
       orient="auto">
      <path
         transform="scale(0.8) rotate(180) translate(12.5,0)"
         style="fill-rule:evenodd;fill:context-stroke;stroke:context-stroke;stroke-width:1.0pt;"
         d="M 0.0,0.0 L 5.0,-5.0 L -12.5,0.0 L 5.0,5.0 L 0.0,0.0 z "
         id="path3444" />
    </marker>
    <marker
       style="overflow:visible"
       id="marker3711"
       refX="0.0"
       refY="0.0"
       orient="auto">
      <path
         transform="scale(0.8) translate(12.5,0)"
         style="fill-rule:evenodd;fill:context-stroke;stroke:context-stroke;stroke-width:1.0pt"
         d="M 0.0,0.0 L 5.0,-5.0 L -12.5,0.0 L 5.0,5.0 L 0.0,0.0 z "
         id="path3709" />
    </marker>
    <marker
       style="overflow:visible"
       id="Arrow1Lstart"
       refX="0.0"
       refY="0.0"
       orient="auto">
      <path
         transform="scale(0.8) translate(12.5,0)"
         style="fill-rule:evenodd;fill:context-stroke;stroke:context-stroke;stroke-width:1.0pt"
         d="M 0.0,0.0 L 5.0,-5.0 L -12.5,0.0 L 5.0,5.0 L 0.0,0.0 z "
         id="path3441" />
    </marker>
  </defs>
  <g
     id="layer1"
     transform="rotate(-90,2.2489583,2.2489583)">
    <path
       style="fill:#848284;fill-opacity:1;stroke:none;stroke-width:0.140655px;stroke-linecap:butt;stroke-linejoin:miter;stroke-opacity:1"
       d="M 0.52916665,0.26458333 V 3.7041666 H 3.9687499 V 0.26458333 Z"
       id="path885" />
    <path
       style="fill:#e4e2e4;fill-opacity:1;stroke:none;stroke-width:0.264583px;stroke-linecap:butt;stroke-linejoin:miter;stroke-opacity:1"
       d="M 0.79375002,0.52916668 H 3.7041668 V 3.4395834 H 0.79375002 Z"
       id="path1621" />
    <g
       id="g7819"
       transform="rotate(180,2.2489581,1.9843749)">
      <g
         id="g10913">
        <path
           style="fill:#000001;fill-opacity:1;stroke:none;stroke-width:0.264583px;stroke-linecap:butt;stroke-linejoin:miter;stroke-opacity:1"
           d="m 1.4221353,2.1166665 0.429948,0.5291667 H 1.5874999 L 1.157552,2.1166665 Z"
           id="path7417" />
        <path
           style="fill:#000001;fill-opacity:1;stroke:none;stroke-width:0.264583px;stroke-linecap:butt;stroke-linejoin:miter;stroke-opacity:1"
           d="M 1.157552,1.8520833 1.5874999,1.3229165 H 1.8520833 L 1.4221354,1.8520833 Z"
           id="path7415" />
        <path
           style="fill:#000001;fill-opacity:1;stroke:none;stroke-width:0.264583px;stroke-linecap:butt;stroke-linejoin:miter;stroke-opacity:1"
           d="m 3.439583,2.1166664 -2.282031,10e-8 -0.099219,-0.1322916 0.099219,-0.1322916 2.282031,-1e-7 z"
           id="path7407" />
      </g>
    </g>
  </g>
</svg>
