<?xml version="1.0" encoding="UTF-8" standalone="no"?>
<!-- Created with Inkscape (http://www.inkscape.org/) -->

<svg
   width="16"
   height="16"
   viewBox="0 0 4.2333332 4.2333333"
   version="1.1"
   id="svg181291"
   xmlns:xlink="http://www.w3.org/1999/xlink"
   xmlns="http://www.w3.org/2000/svg"
   xmlns:svg="http://www.w3.org/2000/svg">
  <defs
     id="defs181288">
    <linearGradient
       id="linearGradient190262">
      <stop
         style="stop-color:#ffffff;stop-opacity:1;"
         offset="0"
         id="stop190258" />
      <stop
         style="stop-color:#a0a0a4;stop-opacity:1;"
         offset="1"
         id="stop190260" />
    </linearGradient>
    <linearGradient
       xlink:href="#linearGradient190262"
       id="linearGradient190264"
       x1="1.9974678"
       y1="1.45895"
       x2="1.9932934"
       y2="3.046469"
       gradientUnits="userSpaceOnUse"
       gradientTransform="matrix(0.88892018,0,0,0.8000568,0.2204235,0.4496638)" />
  </defs>
  <g
     id="layer1">
    <path
       id="path218273"
       style="fill:#ffffff;fill-opacity:1;fill-rule:evenodd;stroke:none;stroke-width:0.264583;stroke-dasharray:none;stroke-opacity:1"
       d="m 0.26458333,2.5135411 h 0.2645833 V 3.5718744 H 1.3229167 V 2.5135411 h 0.5291667 v 1.7197916 h 0.79375 V 2.5135411 H 3.175 V 3.5718744 H 3.96875 V 2.5135411 H 4.2333333 V 2.2489578 H 3.96875 V 1.1906247 H 3.175 V 2.2489578 H 2.6458334 V 0.52916666 h -0.79375 V 2.2489578 H 1.3229167 V 1.1906247 H 0.52916663 v 1.0583331 h -0.2645833 z" />
    <path
       id="path218273-1"
       style="fill:#808080;fill-opacity:1;fill-rule:evenodd;stroke:none;stroke-width:0.264583;stroke-dasharray:none;stroke-opacity:1"
       d="M 0,2.2489581 H 0.2645834 V 3.3072913 H 1.0583335 V 2.2489581 h 0.5291667 v 1.7197915 h 0.79375 V 2.2489581 h 0.5291666 v 1.0583332 h 0.79375 V 2.2489581 H 4.2333334 V 1.9843748 H 3.7041668 V 0.92604166 h -0.79375 V 1.9843748 H 2.3812502 V 0.26458333 h -0.79375 V 1.9843748 H 1.0583335 V 0.92604166 H 0.2645834 V 1.9843748 H 0 Z" />
  </g>
</svg>
